<svg width="235" height="54" viewBox="0 0 235 54" fill="none" xmlns="http://www.w3.org/2000/svg">
<g clip-path="url(#clip0_58_862)">
<path d="M73.5101 18.63H81.2601V47.96H89.1801V18.63H96.9201V11.6H73.5101V18.63Z" fill="white"/>
<path d="M58.6201 36.73C58.6201 39.66 56.9001 41.49 54.1901 41.49C51.4801 41.49 49.7601 39.66 49.7601 36.73V11.6H41.8501V36.84C41.8501 44.04 46.8301 48.52 54.1901 48.52C61.5501 48.52 66.5301 44.04 66.5301 36.84V11.6H58.6201V36.73Z" fill="white"/>
<path d="M117.41 26.38L112.87 24.66C110.38 23.72 109.94 22.12 109.94 21.06C109.94 19.07 111.38 17.57 113.92 17.57C116.46 17.57 118.07 19.23 118.07 21.83V22.83H125.49V22C125.49 15.25 120.84 11.04 113.92 11.04C107 11.04 102.46 16.02 102.46 21.55C102.46 27.08 105.23 30.02 110.48 32.01L115.57 33.95C117.84 34.84 118.72 36.05 118.72 37.88C118.72 40.43 117.06 41.92 114.07 41.92C111.08 41.92 109.26 40.54 109.26 37.6V36.27H101.79V37.54C101.79 44.29 106.99 48.5 114.08 48.5C121.83 48.5 126.26 43.8 126.26 37.1C126.26 30.4 121.94 28.08 117.41 26.36" fill="white"/>
<path d="M3.77449 23.1529L0.337952 26.5895L3.77449 30.026L7.21103 26.5895L3.77449 23.1529Z" fill="white"/>
<path d="M14.9101 27.41L17.5301 30.03L20.9701 26.59L17.4701 23.09C16.0601 21.68 13.7701 21.68 12.3601 23.09L0.330078 35.11L3.77008 38.55L14.9101 27.41Z" fill="white"/>
<path d="M14.0901 41.98L10.6501 38.54L8.03008 41.16L5.41008 38.54L1.97008 41.98L5.47008 45.48C6.88008 46.89 9.17008 46.89 10.5801 45.48L14.0901 41.97V41.98Z" fill="white"/>
<path d="M14.9101 48.04L12.2901 45.42L8.85008 48.86L12.3501 52.36C13.7601 53.77 16.0501 53.77 17.4601 52.36L20.9601 48.86L17.5201 45.42L14.9001 48.04H14.9101Z" fill="white"/>
<path d="M21.7801 41.16L19.1601 38.54L15.7201 41.98L19.2301 45.48C20.6401 46.89 22.9301 46.89 24.3401 45.48L27.8401 41.98L24.4001 38.54L21.7801 41.16Z" fill="white"/>
<path d="M26.0392 31.6632L22.6027 35.0997L26.0392 38.5363L29.4758 35.0997L26.0392 31.6632Z" fill="white"/>
<path d="M14.9101 34.29L12.2901 31.67L8.85008 35.11L12.3501 38.61C13.7601 40.02 16.0501 40.02 17.4601 38.61L29.4801 26.59L26.0401 23.15L14.9001 34.29H14.9101Z" fill="white"/>
<path d="M14.9003 -0.000797222L10.3103 4.58752L14.8987 9.17745L19.4886 4.58913L14.9003 -0.000797222Z" fill="white"/>
<path d="M9.18007 15.03H12.4701V21.54C13.9601 20.66 15.8401 20.66 17.3301 21.54V15.03H20.6201L22.7701 17.18L27.3601 12.59L22.7701 8L20.6201 10.15H9.18007L7.03007 8L2.45007 12.59L7.03007 17.18L9.18007 15.03Z" fill="white"/>
<path d="M142.62 42.6401C141.83 42.5501 140.98 42.3801 140.98 41.6801C140.98 41.0701 141.62 40.5601 142.39 40.5601C143.34 40.5601 143.88 41.1301 143.87 41.6201C143.87 41.6501 143.89 41.6801 143.93 41.6801H145.25C145.25 41.6801 145.3 41.6601 145.3 41.6201C145.3 40.1401 143.91 39.3101 142.4 39.3101C140.98 39.3101 139.57 40.1801 139.57 41.6801C139.57 43.2801 140.76 43.8301 142.63 44.0001C143.8 44.1001 144.28 44.5901 144.28 45.0901C144.28 45.7601 143.57 46.3001 142.63 46.3001C141.69 46.3001 140.93 45.7901 140.93 45.2401C140.93 45.2101 140.91 45.1801 140.87 45.1801H139.56C139.56 45.1801 139.5 45.2001 139.5 45.2401C139.5 46.3101 140.35 47.5501 142.62 47.5501C144.52 47.5501 145.69 46.5901 145.69 45.0901C145.69 43.0201 143.81 42.7701 142.62 42.6301" fill="white"/>
<path d="M153.16 39.4301H151.68C151.68 39.4301 151.61 39.4401 151.59 39.4901L149.82 42.7301C149.82 42.7301 149.75 42.7601 149.73 42.7301L147.97 39.4901C147.97 39.4901 147.93 39.4301 147.89 39.4301H146.4C146.4 39.4301 146.33 39.4801 146.36 39.5201L149.08 44.0901C149.08 44.0901 149.1 44.1501 149.1 44.1701V47.3801C149.1 47.3801 149.12 47.4401 149.16 47.4401H150.41C150.41 47.4401 150.47 47.4201 150.47 47.3801V44.1701C150.47 44.1701 150.47 44.1301 150.49 44.0901L153.22 39.5201C153.25 39.4601 153.21 39.4301 153.17 39.4301" fill="white"/>
<path d="M169.34 39.4301H168.09C168.09 39.4301 168.03 39.4501 168.03 39.4901V45.4801C168.03 45.5401 167.95 45.5601 167.92 45.4801L164.8 39.4901C164.8 39.4901 164.76 39.4301 164.73 39.4301H163.03C163.03 39.4301 162.97 39.4501 162.97 39.4901V47.3901C162.97 47.3901 162.99 47.4501 163.02 47.4501H164.28C164.28 47.4501 164.34 47.4301 164.34 47.3901V41.4001C164.34 41.3401 164.42 41.3201 164.45 41.4001L167.56 47.3901C167.56 47.3901 167.61 47.4501 167.64 47.4501H169.34C169.34 47.4501 169.4 47.4301 169.4 47.3901V39.4901C169.4 39.4901 169.38 39.4301 169.34 39.4301Z" fill="white"/>
<path d="M177 39.43H171.43C171.43 39.43 171.37 39.45 171.37 39.49V47.39C171.37 47.39 171.39 47.45 171.43 47.45H177C177 47.45 177.06 47.43 177.06 47.39V46.25C177.06 46.25 177.04 46.19 177 46.19H172.8C172.8 46.19 172.74 46.17 172.74 46.13V44.06C172.74 44.06 172.76 44 172.8 44H176.43C176.43 44 176.49 43.98 176.49 43.94V42.8C176.49 42.8 176.47 42.74 176.43 42.74H172.8C172.8 42.74 172.74 42.72 172.74 42.68V40.72C172.74 40.72 172.76 40.66 172.8 40.66H177C177 40.66 177.06 40.64 177.06 40.6V39.46C177.06 39.46 177.04 39.4 177 39.4" fill="white"/>
<path d="M157.64 39.4399H154.71C154.71 39.4399 154.65 39.4599 154.65 39.4999V47.3999C154.65 47.3999 154.67 47.4599 154.71 47.4599H157.64C160.04 47.4599 161.22 45.9499 161.22 43.5299C161.22 41.1099 160.04 39.4599 157.64 39.4399ZM157.64 46.1999H156.08C156.08 46.1999 156.02 46.1799 156.02 46.1399V40.7299C156.02 40.7299 156.03 40.6899 156.07 40.6899H157.64C159.01 40.6899 159.8 41.8099 159.8 43.5199C159.8 45.2299 159 46.1899 157.64 46.1899" fill="white"/>
<path d="M185.26 39.4301H183.78C183.78 39.4301 183.71 39.4401 183.69 39.4901L181.92 42.7301C181.92 42.7301 181.85 42.7601 181.83 42.7301L180.07 39.4901C180.07 39.4901 180.02 39.4301 179.99 39.4301H178.5C178.5 39.4301 178.43 39.4801 178.45 39.5201L181.17 44.0901C181.17 44.0901 181.19 44.1501 181.19 44.1701V47.3801C181.19 47.3801 181.21 47.4401 181.25 47.4401H182.5C182.5 47.4401 182.56 47.4201 182.56 47.3801V44.1701C182.56 44.1701 182.56 44.1301 182.58 44.0901L185.31 39.5201C185.34 39.4601 185.3 39.4301 185.27 39.4301" fill="white"/>
<path d="M154.18 25.78H148.61C148.61 25.78 148.55 25.8 148.55 25.84V33.74C148.55 33.74 148.57 33.8 148.61 33.8H149.86C149.86 33.8 149.92 33.78 149.92 33.74V30.41C149.92 30.41 149.93 30.36 149.97 30.36H153.61C153.61 30.36 153.67 30.34 153.67 30.3V29.16C153.67 29.16 153.65 29.1 153.61 29.1H149.97C149.97 29.1 149.92 29.09 149.92 29.05V27.07C149.92 27.07 149.93 27.03 149.97 27.03H154.18C154.18 27.03 154.24 27.01 154.24 26.97V25.83C154.24 25.83 154.22 25.77 154.18 25.77" fill="white"/>
<path d="M199.66 25.66C197.26 25.66 196.05 27.37 196.05 29.78C196.05 32.19 197.26 33.9 199.66 33.9C202.06 33.9 203.27 32.19 203.27 29.78C203.27 27.37 202.06 25.66 199.66 25.66ZM199.66 32.65C198.25 32.65 197.47 31.57 197.47 29.78C197.47 27.99 198.24 26.91 199.66 26.91C201.08 26.91 201.84 27.99 201.84 29.78C201.84 31.57 201.07 32.65 199.66 32.65Z" fill="white"/>
<path d="M234.6 25.78H233.12C233.12 25.78 233.05 25.79 233.03 25.84L231.25 29.08C231.25 29.08 231.18 29.12 231.16 29.08L229.4 25.84C229.4 25.84 229.36 25.78 229.32 25.78H227.83C227.83 25.78 227.76 25.83 227.78 25.87L230.5 30.44C230.5 30.44 230.52 30.5 230.52 30.52V33.73C230.52 33.73 230.54 33.79 230.58 33.79H231.83C231.83 33.79 231.89 33.77 231.89 33.73V30.52C231.89 30.52 231.89 30.47 231.91 30.44L234.64 25.87C234.67 25.81 234.63 25.78 234.59 25.78" fill="white"/>
<path d="M210.28 32.54H206.41C206.41 32.54 206.36 32.53 206.36 32.5V25.84C206.36 25.84 206.34 25.78 206.3 25.78H205.05C205.05 25.78 204.99 25.8 204.99 25.84V33.74C204.99 33.74 205.01 33.8 205.05 33.8H210.27C210.27 33.8 210.33 33.78 210.33 33.74V32.6C210.33 32.6 210.31 32.54 210.27 32.54" fill="white"/>
<path d="M214.86 25.66C212.46 25.66 211.25 27.37 211.25 29.78C211.25 32.19 212.46 33.9 214.86 33.9C217.26 33.9 218.47 32.19 218.47 29.78C218.47 27.37 217.26 25.66 214.86 25.66ZM214.86 32.65C213.45 32.65 212.67 31.57 212.67 29.78C212.67 27.99 213.44 26.91 214.86 26.91C216.28 26.91 217.05 27.99 217.05 29.78C217.05 31.57 216.27 32.65 214.86 32.65Z" fill="white"/>
<path d="M143.2 33.9C145.6 33.9 146.81 32.19 146.81 29.78C146.81 27.37 145.6 25.66 143.2 25.66C140.8 25.66 139.59 27.37 139.59 29.78C139.59 32.19 140.8 33.9 143.2 33.9ZM143.2 26.91C144.61 26.91 145.38 27.99 145.38 29.78C145.38 31.57 144.61 32.65 143.2 32.65C141.79 32.65 141.01 31.57 141.01 29.78C141.01 27.99 141.79 26.91 143.2 26.91Z" fill="white"/>
<path d="M226.93 29.17H223.56C223.56 29.17 223.51 29.19 223.51 29.23V30.36C223.51 30.36 223.52 30.42 223.56 30.42H225.69C225.69 30.42 225.74 30.43 225.74 30.46V30.57C225.66 32.2 224.65 32.64 223.52 32.64C222.11 32.64 221.34 31.57 221.34 29.78C221.34 27.99 222.16 26.92 223.52 26.92C224.27 26.92 224.95 27.25 225.3 27.94C225.31 27.97 225.33 28.02 225.44 28.02H226.78C226.78 28.02 226.85 27.97 226.84 27.94C226.46 26.64 225.5 25.65 223.53 25.65C221.24 25.65 219.92 27.37 219.92 29.77C219.92 32.17 221.24 33.89 223.53 33.89C224.45 33.89 225.09 33.55 225.63 33.12C225.69 33.07 225.73 33.1 225.74 33.14L225.85 33.73C225.85 33.73 225.87 33.78 225.91 33.78H226.95C226.95 33.78 227.01 33.77 227.01 33.73V29.21C227.01 29.21 226.99 29.15 226.95 29.15" fill="white"/>
<path d="M174.86 26.93C176.31 26.93 176.69 28.06 176.81 28.4C176.82 28.44 176.84 28.46 176.88 28.46H178.19C178.19 28.46 178.25 28.44 178.25 28.4C178.25 27.69 177.41 25.67 174.87 25.67C172.47 25.67 171.28 27.47 171.28 29.87C171.28 32.27 172.46 33.91 174.87 33.91C177.56 33.91 178.25 31.7 178.25 31.18C178.25 31.15 178.24 31.12 178.19 31.12H176.89C176.89 31.12 176.83 31.14 176.82 31.18C176.73 31.47 176.32 32.65 174.86 32.65C173.49 32.65 172.7 31.6 172.7 29.87C172.7 28.14 173.5 26.93 174.86 26.93Z" fill="white"/>
<path d="M169.91 25.78H164.34C164.34 25.78 164.28 25.8 164.28 25.84V33.74C164.28 33.74 164.3 33.8 164.34 33.8H169.91C169.91 33.8 169.97 33.78 169.97 33.74V32.6C169.97 32.6 169.95 32.54 169.91 32.54H165.71C165.71 32.54 165.65 32.52 165.65 32.48V30.41C165.65 30.41 165.67 30.35 165.71 30.35H169.34C169.34 30.35 169.4 30.33 169.4 30.29V29.15C169.4 29.15 169.38 29.09 169.34 29.09H165.71C165.71 29.09 165.65 29.07 165.65 29.03V27.07C165.65 27.07 165.67 27.01 165.71 27.01H169.91C169.91 27.01 169.97 26.99 169.97 26.95V25.81C169.97 25.81 169.95 25.75 169.91 25.75" fill="white"/>
<path d="M162.85 25.78H157.16C157.16 25.78 157.1 25.8 157.1 25.84V26.98C157.1 26.98 157.12 27.04 157.16 27.04H159.27C159.27 27.04 159.33 27.06 159.33 27.1V33.75C159.33 33.75 159.35 33.81 159.39 33.81H160.64C160.64 33.81 160.7 33.79 160.7 33.75V27.1C160.7 27.1 160.72 27.04 160.76 27.04H162.87C162.87 27.04 162.93 27.02 162.93 26.98V25.84C162.93 25.84 162.91 25.78 162.87 25.78" fill="white"/>
<path d="M185.83 25.78H184.58C184.58 25.78 184.52 25.8 184.52 25.84V29.06C184.52 29.06 184.51 29.11 184.48 29.11H181.26C181.26 29.11 181.21 29.1 181.21 29.06V25.84C181.21 25.84 181.19 25.78 181.15 25.78H179.9C179.9 25.78 179.84 25.8 179.84 25.84V33.74C179.84 33.74 179.86 33.8 179.9 33.8H181.15C181.15 33.8 181.21 33.78 181.21 33.74V30.41C181.21 30.41 181.22 30.36 181.26 30.36H184.48C184.48 30.36 184.52 30.37 184.52 30.41V33.74C184.52 33.74 184.54 33.8 184.58 33.8H185.83C185.83 33.8 185.89 33.78 185.89 33.74V25.84C185.89 25.84 185.87 25.78 185.83 25.78Z" fill="white"/>
<path d="M194.28 25.78H193.03C193.03 25.78 192.97 25.8 192.97 25.84V31.83C192.97 31.89 192.89 31.91 192.86 31.83L189.74 25.84C189.74 25.84 189.7 25.78 189.67 25.78H187.97C187.97 25.78 187.91 25.8 187.91 25.84V33.74C187.91 33.74 187.93 33.8 187.96 33.8H189.22C189.22 33.8 189.28 33.78 189.28 33.74V27.75C189.28 27.69 189.36 27.67 189.39 27.75L192.5 33.74C192.5 33.74 192.55 33.8 192.58 33.8H194.28C194.28 33.8 194.34 33.78 194.34 33.74V25.84C194.34 25.84 194.32 25.78 194.28 25.78Z" fill="white"/>
<path d="M167.43 20.13H172.99C172.99 20.13 173.05 20.11 173.05 20.07V18.93C173.05 18.93 173.03 18.87 172.99 18.87H168.79C168.79 18.87 168.73 18.85 168.73 18.81V16.74C168.73 16.74 168.75 16.68 168.79 16.68H172.42C172.42 16.68 172.48 16.66 172.48 16.62V15.48C172.48 15.48 172.46 15.42 172.42 15.42H168.79C168.79 15.42 168.73 15.4 168.73 15.36V13.4C168.73 13.4 168.75 13.34 168.79 13.34H172.99C172.99 13.34 173.05 13.32 173.05 13.28V12.14C173.05 12.14 173.03 12.08 172.99 12.08H167.43C167.43 12.08 167.37 12.1 167.37 12.14V20.04C167.37 20.04 167.39 20.1 167.43 20.1" fill="white"/>
<path d="M161.3 20.08C161.3 20.08 161.35 20.14 161.37 20.14H163.35C163.35 20.14 163.41 20.12 163.42 20.08L165.97 12.2C165.97 12.2 165.96 12.12 165.91 12.12H164.6C164.6 12.12 164.55 12.13 164.54 12.15L162.41 18.74C162.39 18.8 162.32 18.8 162.3 18.74L160.16 12.15C160.16 12.15 160.13 12.12 160.1 12.12H158.79C158.79 12.12 158.72 12.17 158.73 12.2L161.29 20.08H161.3Z" fill="white"/>
<path d="M189.79 20.13H191.04C191.04 20.13 191.1 20.11 191.1 20.07V12.17C191.1 12.17 191.08 12.11 191.04 12.11H189.79C189.79 12.11 189.73 12.13 189.73 12.17V20.07C189.73 20.07 189.75 20.13 189.79 20.13Z" fill="white"/>
<path d="M155.93 20.13H157.18C157.18 20.13 157.24 20.11 157.24 20.07V12.17C157.24 12.17 157.22 12.11 157.18 12.11H155.93C155.93 12.11 155.87 12.13 155.87 12.17V20.07C155.87 20.07 155.89 20.13 155.93 20.13Z" fill="white"/>
<path d="M174.87 20.13H176.12C176.12 20.13 176.18 20.11 176.18 20.07V17.1C176.18 17.1 176.19 17.06 176.23 17.06H178.02C178.02 17.06 178.07 17.09 178.08 17.12L179.4 20.1C179.4 20.1 179.43 20.13 179.46 20.13H180.77C180.77 20.13 180.85 20.1 180.83 20.05L179.38 16.79C179.38 16.79 179.37 16.76 179.38 16.75C180.11 16.34 180.62 15.54 180.62 14.59C180.62 13.2 179.51 12.12 178.22 12.12H174.89C174.89 12.12 174.83 12.14 174.83 12.18V20.08C174.83 20.08 174.85 20.14 174.89 20.14M176.2 13.42C176.2 13.42 176.21 13.38 176.25 13.38H178.12C178.72 13.38 179.28 13.93 179.28 14.6C179.28 15.27 178.74 15.79 178.16 15.82H176.26C176.26 15.82 176.2 15.8 176.2 15.76V13.43V13.42Z" fill="white"/>
<path d="M196.1 13.37H198.2C198.2 13.37 198.26 13.35 198.26 13.31V12.17C198.26 12.17 198.24 12.11 198.2 12.11H192.51C192.51 12.11 192.45 12.13 192.45 12.17V13.31C192.45 13.31 192.47 13.37 192.51 13.37H194.61C194.61 13.37 194.67 13.39 194.67 13.43V20.08C194.67 20.08 194.69 20.14 194.73 20.14H195.98C195.98 20.14 196.04 20.12 196.04 20.08V13.43C196.04 13.43 196.06 13.37 196.1 13.37Z" fill="white"/>
<path d="M147.53 20.13H148.79C148.79 20.13 148.85 20.11 148.85 20.07V14.08C148.85 14.02 148.93 14 148.96 14.08L152.07 20.07C152.07 20.07 152.12 20.13 152.15 20.13H153.85C153.85 20.13 153.91 20.11 153.91 20.07V12.17C153.91 12.17 153.89 12.11 153.85 12.11H152.6C152.6 12.11 152.54 12.13 152.54 12.17V18.16C152.54 18.22 152.46 18.24 152.43 18.16L149.31 12.17C149.31 12.17 149.28 12.11 149.24 12.11H147.54C147.54 12.11 147.48 12.13 147.48 12.17V20.07C147.48 20.07 147.5 20.13 147.53 20.13Z" fill="white"/>
<path d="M185.1 15.33C184.31 15.24 183.46 15.07 183.46 14.37C183.46 13.75 184.1 13.25 184.87 13.25C185.82 13.25 186.36 13.82 186.35 14.31C186.35 14.34 186.37 14.37 186.41 14.37H187.73C187.73 14.37 187.77 14.35 187.77 14.31C187.77 12.83 186.38 12 184.87 12C183.45 12 182.04 12.86 182.04 14.37C182.04 15.97 183.24 16.52 185.1 16.69C186.27 16.79 186.75 17.28 186.75 17.78C186.75 18.45 186.04 18.99 185.1 18.99C184.16 18.99 183.4 18.48 183.4 17.93C183.4 17.9 183.38 17.87 183.34 17.87H182.03C182.03 17.87 181.97 17.89 181.97 17.93C181.97 19 182.82 20.24 185.09 20.24C186.99 20.24 188.16 19.28 188.16 17.78C188.16 15.71 186.28 15.46 185.09 15.32" fill="white"/>
<path d="M206.29 12.12H204.81C204.81 12.12 204.74 12.13 204.72 12.18L202.95 15.42C202.95 15.42 202.88 15.45 202.86 15.42L201.1 12.18C201.1 12.18 201.05 12.12 201.02 12.12H199.53C199.53 12.12 199.46 12.17 199.48 12.21L202.2 16.78C202.2 16.78 202.22 16.84 202.22 16.86V20.07C202.22 20.07 202.24 20.13 202.28 20.13H203.53C203.53 20.13 203.59 20.11 203.59 20.07V16.86C203.59 16.86 203.59 16.82 203.61 16.78L206.34 12.21C206.37 12.15 206.33 12.12 206.29 12.12Z" fill="white"/>
<path d="M142.61 20.25C144.23 20.25 145.51 18.96 145.51 17.36V12.18C145.51 12.18 145.49 12.12 145.45 12.12H144.2C144.2 12.12 144.14 12.14 144.14 12.18V17.36C144.14 18.2 143.45 18.88 142.6 18.88C141.75 18.88 141.06 18.2 141.06 17.36V12.18C141.06 12.18 141.04 12.12 141 12.12H139.75C139.75 12.12 139.69 12.14 139.69 12.18V17.36C139.69 18.96 140.99 20.25 142.59 20.25" fill="white"/>
</g>
<defs>
<clipPath id="clip0_58_862">
<rect width="234.33" height="53.42" fill="white" transform="translate(0.330078)"/>
</clipPath>
</defs>
</svg>
